<svg viewBox="0 0 24 24" width="20" height="20" fill="currentColor" xmlns="http://www.w3.org/2000/svg"><path d="M11.944 0C5.344 0 0 5.344 0 11.944c0 5.622 3.88 10.35 9.125 11.644.075-.013.15-.025.213-.05.375-.125.563-.425.563-.825l-.013-2.888c-3.325.725-4.025-1.425-4.025-1.425-.538-1.375-1.312-1.75-1.312-1.75-1.087-.738.087-.725.087-.725 1.2.088 1.837 1.238 1.837 1.238 1.063 1.825 2.8 1.3 3.475.988.113-.763.413-1.3.75-1.6-2.65-.3-5.438-1.325-5.438-5.9 0-1.3.463-2.363 1.225-3.2-.125-.3-.525-1.513.113-3.15 0 0 1.013-.325 3.3 1.225.962-.263 1.987-.4 3.012-.4 1.025 0 2.05.137 3.013.4 2.287-1.55 3.3-1.225 3.3-1.225.638 1.637.238 2.85.113 3.15.762.837 1.225 1.9 1.225 3.2 0 4.587-2.8 5.6-5.462 5.9.425.362.812 1.087.812 2.2v3.287c0 .4.188.7.563.813C20.12 22.294 24 17.566 24 11.944 24 5.344 18.656 0 11.944 0z"/>
<!-- Fallback standard Telegram path standard vector -->
<path d="M12 2C6.48 2 2 6.48 2 12s4.48 10 10 10 10-4.48 10-10S17.52 2 12 2zm4.64 6.8c-.15 1.58-.8 5.42-1.13 7.19-.14.75-.42 1-.68 1.03-.58.05-1.02-.38-1.58-.75-.88-.58-1.38-.94-2.23-1.5-.99-.65-.35-1.01.22-1.59.15-.15 2.71-2.48 2.76-2.69.01-.03.01-.14-.07-.2-.08-.06-.19-.04-.27-.02-.12.02-1.96 1.24-5.54 3.65-.52.36-1 .53-1.42.52-.47-.01-1.37-.26-2.03-.48-.82-.27-1.47-.42-1.42-.88.03-.24.35-.49.97-.74 3.79-1.65 6.32-2.74 7.59-3.27 3.61-1.52 4.36-1.78 4.85-1.79.11 0 .35.03.5.16.13.12.17.28.19.39.02.1.04.35.02.53z" fill="currentColor"/></svg>
