<svg viewBox="0 0 24 24" width="18" height="18" fill="currentColor" xmlns="http://www.w3.org/2000/svg"><path d="M12.525.02c1.31-.03 2.61-.01 3.91-.02.08 1.53.63 3.09 1.75 4.17 1.12 1.11 2.7 1.62 4.24 1.79v4.03c-1.44-.17-2.86-.74-3.99-1.72-.17-.15-.32-.32-.48-.48v6.52c0 2.22-.64 4.54-2.28 6.06-1.78 1.69-4.46 2.14-6.73 1.51-2.45-.66-4.63-2.6-5.18-5.1-.64-2.73.23-5.83 2.37-7.66 1.73-1.48 4.14-1.92 6.32-1.37v4.18c-1.3-.43-2.79-.19-3.85.67-1.12.9-1.57 2.47-1.21 3.86.35 1.45 1.71 2.58 3.2 2.61 1.79.08 3.44-1.2 3.66-2.98.05-.34.05-.69.05-1.03V0h.03z"/></svg>
