<svg viewBox="0 0 24 24" width="20" height="20" fill="currentColor" xmlns="http://www.w3.org/2000/svg">
  <path fill-rule="evenodd" clip-rule="evenodd" d="M23.498 6.163a3.003 3.003 0 0 0-2.11-2.11C19.518 3.545 12 3.545 12 3.545s-7.518 0-9.388.507a3.003 3.003 0 0 0-2.11 2.11C0 8.033 0 12 0 12s0 3.967.502 5.837a3.003 3.003 0 0 0 2.11 2.11c1.87.507 9.388.507 9.388.507s7.518 0 9.388-.507a3.003 3.003 0 0 0 2.11-2.11C24 15.967 24 12 24 12s0-3.967-.502-5.837zM9.545 15.568l6.273-3.568-6.273-3.568v7.136z"/>
</svg>
